<svg xmlns="http://www.w3.org/2000/svg" xmlns:xlink="http://www.w3.org/1999/xlink" viewBox="0 0 686.69 788.82"><defs><style>.cls-1{mask:url(#mask);filter:url(#luminosity-noclip-2);}.cls-12,.cls-16,.cls-2,.cls-20,.cls-24,.cls-28,.cls-32,.cls-36,.cls-40,.cls-44,.cls-48,.cls-52,.cls-56,.cls-6,.cls-60,.cls-8{mix-blend-mode:multiply;}.cls-2{fill:url(#linear-gradient);}.cls-3{mask:url(#mask-2);}.cls-4{fill:url(#linear-gradient-2);}.cls-5{mask:url(#mask-3);filter:url(#luminosity-noclip-32);}.cls-6{fill:url(#linear-gradient-3);}.cls-7{mask:url(#mask-4);filter:url(#luminosity-noclip-5);}.cls-8{fill:url(#linear-gradient-4);}.cls-9{mask:url(#mask-5);}.cls-10{fill:url(#linear-gradient-5);}.cls-11{mask:url(#mask-6);filter:url(#luminosity-noclip-7);}.cls-12{fill:url(#linear-gradient-6);}.cls-13{mask:url(#mask-7);}.cls-14{fill:url(#linear-gradient-7);}.cls-15{mask:url(#mask-8);filter:url(#luminosity-noclip-9);}.cls-16{fill:url(#linear-gradient-8);}.cls-17{mask:url(#mask-9);}.cls-18{fill:url(#linear-gradient-9);}.cls-19{mask:url(#mask-10);filter:url(#luminosity-noclip-11);}.cls-20{fill:url(#linear-gradient-10);}.cls-21{mask:url(#mask-11);}.cls-22{fill:url(#linear-gradient-11);}.cls-23{mask:url(#mask-12);filter:url(#luminosity-noclip-13);}.cls-24{fill:url(#linear-gradient-12);}.cls-25{mask:url(#mask-13);}.cls-26{fill:url(#linear-gradient-13);}.cls-27{mask:url(#mask-14);filter:url(#luminosity-noclip-15);}.cls-28{fill:url(#linear-gradient-14);}.cls-29{mask:url(#mask-15);}.cls-30{fill:url(#linear-gradient-15);}.cls-31{mask:url(#mask-16);filter:url(#luminosity-noclip-17);}.cls-32{fill:url(#linear-gradient-16);}.cls-33{mask:url(#mask-17);}.cls-34{fill:url(#linear-gradient-17);}.cls-35{mask:url(#mask-18);filter:url(#luminosity-noclip-19);}.cls-36{fill:url(#linear-gradient-18);}.cls-37{mask:url(#mask-19);}.cls-38{fill:url(#linear-gradient-19);}.cls-39{mask:url(#mask-20);filter:url(#luminosity-noclip-21);}.cls-40{fill:url(#linear-gradient-20);}.cls-41{mask:url(#mask-21);}.cls-42{fill:url(#linear-gradient-21);}.cls-43{mask:url(#mask-22);filter:url(#luminosity-noclip-23);}.cls-44{fill:url(#linear-gradient-22);}.cls-45{mask:url(#mask-23);}.cls-46{fill:url(#linear-gradient-23);}.cls-47{mask:url(#mask-24);filter:url(#luminosity-noclip-25);}.cls-48{fill:url(#linear-gradient-24);}.cls-49{mask:url(#mask-25);}.cls-50{fill:url(#linear-gradient-25);}.cls-51{mask:url(#mask-26);filter:url(#luminosity-noclip-27);}.cls-52{fill:url(#linear-gradient-26);}.cls-53{mask:url(#mask-27);}.cls-54{fill:url(#linear-gradient-27);}.cls-55{mask:url(#mask-28);filter:url(#luminosity-noclip-29);}.cls-56{fill:url(#linear-gradient-28);}.cls-57{mask:url(#mask-29);}.cls-58{fill:url(#linear-gradient-29);}.cls-59{mask:url(#mask-30);filter:url(#luminosity-noclip-31);}.cls-60{fill:url(#linear-gradient-30);}.cls-61{mask:url(#mask-31);}.cls-62{fill:url(#linear-gradient-31);}.cls-63{mask:url(#mask-32);}.cls-64{fill:url(#linear-gradient-32);}.cls-65{fill:url(#linear-gradient-33);}.cls-66{mask:url(#mask-33);}.cls-67{fill:#27ba98;}.cls-68{fill:url(#linear-gradient-34);}.cls-69{mask:url(#mask-34);}.cls-70{mask:url(#mask-35);}.cls-71{fill:#9c9d9d;}.cls-72{fill:url(#linear-gradient-35);}.cls-73{mask:url(#mask-36);}.cls-74{fill:#d5ffff;}.cls-75{fill:url(#linear-gradient-36);}.cls-76{mask:url(#mask-37);}.cls-77{fill:url(#linear-gradient-37);}.cls-78{mask:url(#mask-38);}.cls-79{mask:url(#mask-39);}.cls-80{mask:url(#mask-40);}.cls-81{mask:url(#mask-41);}.cls-82{mask:url(#mask-42);}.cls-83{fill:#d6d7d7;}.cls-84{mask:url(#mask-43);}.cls-85{mask:url(#mask-44);}.cls-86{mask:url(#mask-45);}.cls-87{mask:url(#mask-46);}.cls-88{mask:url(#mask-47);}.cls-89{fill:#a6a7a7;}.cls-90{mask:url(#mask-48);}.cls-91{fill:#f7fcc5;}.cls-92{filter:url(#luminosity-noclip-30);}.cls-93{filter:url(#luminosity-noclip-28);}.cls-94{filter:url(#luminosity-noclip-26);}.cls-95{filter:url(#luminosity-noclip-24);}.cls-96{filter:url(#luminosity-noclip-22);}.cls-97{filter:url(#luminosity-noclip-20);}.cls-98{filter:url(#luminosity-noclip-18);}.cls-99{filter:url(#luminosity-noclip-16);}.cls-100{filter:url(#luminosity-noclip-14);}.cls-101{filter:url(#luminosity-noclip-12);}.cls-102{filter:url(#luminosity-noclip-10);}.cls-103{filter:url(#luminosity-noclip-8);}.cls-104{filter:url(#luminosity-noclip-6);}.cls-105{filter:url(#luminosity-noclip-4);}.cls-106{filter:url(#luminosity-noclip-3);}.cls-107{filter:url(#luminosity-noclip);}</style><filter id="luminosity-noclip" x="37.31" y="-8626.03" width="271" height="32766" filterUnits="userSpaceOnUse" color-interpolation-filters="sRGB"><feFlood flood-color="#fff" result="bg"/><feBlend in="SourceGraphic" in2="bg"/></filter><mask id="mask" x="37.31" y="-8626.03" width="271" height="32766" maskUnits="userSpaceOnUse"><g class="cls-107"/></mask><linearGradient id="linear-gradient" x1="172.81" y1="1282.64" x2="172.81" y2="279.84" gradientTransform="matrix(1, 0, 0, -1, 0, 870.06)" gradientUnits="userSpaceOnUse"><stop offset="0" stop-color="#fff"/><stop offset="1"/></linearGradient><filter id="luminosity-noclip-2" x="37.31" y="134.17" width="271" height="476.86" filterUnits="userSpaceOnUse" color-interpolation-filters="sRGB"><feFlood flood-color="#fff" result="bg"/><feBlend in="SourceGraphic" in2="bg"/></filter><mask id="mask-2" x="37.31" y="134.17" width="271" height="476.86" maskUnits="userSpaceOnUse"><g class="cls-1"><rect class="cls-2" x="37.31" y="134.17" width="271" height="476.86"/></g></mask><linearGradient id="linear-gradient-2" x1="172.81" y1="1282.64" x2="172.81" y2="279.84" gradientTransform="matrix(1, 0, 0, -1, 0, 870.06)" gradientUnits="userSpaceOnUse"><stop offset="0" stop-color="#fff"/><stop offset="1" stop-color="#fff"/></linearGradient><filter id="luminosity-noclip-3" x="185.84" y="-8626.03" width="501.9" height="32766" filterUnits="userSpaceOnUse" color-interpolation-filters="sRGB"><feFlood flood-color="#fff" result="bg"/><feBlend in="SourceGraphic" in2="bg"/></filter><mask id="mask-3" x="185.84" y="-8626.03" width="501.9" height="32766" maskUnits="userSpaceOnUse"><g class="cls-106"/></mask><linearGradient id="linear-gradient-3" x1="436.79" y1="-1460.22" x2="436.79" y2="989.59" xlink:href="#linear-gradient"/><filter id="luminosity-noclip-4" x="503.47" y="-8626.03" width="151.89" height="32766" filterUnits="userSpaceOnUse" color-interpolation-filters="sRGB"><feFlood flood-color="#fff" result="bg"/><feBlend in="SourceGraphic" in2="bg"/></filter><mask id="mask-4" x="503.47" y="-8626.03" width="151.89" height="32766" maskUnits="userSpaceOnUse"><g class="cls-105"/></mask><linearGradient id="linear-gradient-4" x1="579.41" y1="2137.24" x2="579.41" y2="245.99" xlink:href="#linear-gradient"/><filter id="luminosity-noclip-5" x="503.47" y="43.41" width="151.89" height="619.18" filterUnits="userSpaceOnUse" color-interpolation-filters="sRGB"><feFlood flood-color="#fff" result="bg"/><feBlend in="SourceGraphic" in2="bg"/></filter><mask id="mask-5" x="503.47" y="43.41" width="151.89" height="619.18" maskUnits="userSpaceOnUse"><g class="cls-7"><rect class="cls-8" x="503.47" y="43.41" width="151.89" height="619.18"/></g></mask><linearGradient id="linear-gradient-5" x1="579.41" y1="2137.24" x2="579.41" y2="245.99" xlink:href="#linear-gradient-2"/><filter id="luminosity-noclip-6" x="0.89" y="-8626.03" width="182.56" height="32766" filterUnits="userSpaceOnUse" color-interpolation-filters="sRGB"><feFlood flood-color="#fff" result="bg"/><feBlend in="SourceGraphic" in2="bg"/></filter><mask id="mask-6" x="0.89" y="-8626.03" width="182.56" height="32766" maskUnits="userSpaceOnUse"><g class="cls-104"/></mask><linearGradient id="linear-gradient-6" x1="-63.04" y1="995.39" x2="135.86" y2="253.09" xlink:href="#linear-gradient"/><filter id="luminosity-noclip-7" x="0.89" y="244.7" width="182.56" height="418.4" filterUnits="userSpaceOnUse" color-interpolation-filters="sRGB"><feFlood flood-color="#fff" result="bg"/><feBlend in="SourceGraphic" in2="bg"/></filter><mask id="mask-7" x="0.89" y="244.7" width="182.56" height="418.4" maskUnits="userSpaceOnUse"><g class="cls-11"><rect class="cls-12" x="0.89" y="244.7" width="182.56" height="418.4"/></g></mask><linearGradient id="linear-gradient-7" x1="-63.04" y1="995.39" x2="135.86" y2="253.09" xlink:href="#linear-gradient-2"/><filter id="luminosity-noclip-8" x="499.49" y="-8626.03" width="135.86" height="32766" filterUnits="userSpaceOnUse" color-interpolation-filters="sRGB"><feFlood flood-color="#fff" result="bg"/><feBlend in="SourceGraphic" in2="bg"/></filter><mask id="mask-8" x="499.49" y="-8626.03" width="135.86" height="32766" maskUnits="userSpaceOnUse"><g class="cls-103"/></mask><linearGradient id="linear-gradient-8" x1="154.52" y1="104.48" x2="639.49" y2="589.45" xlink:href="#linear-gradient"/><filter id="luminosity-noclip-9" x="499.49" y="42.78" width="135.86" height="619.81" filterUnits="userSpaceOnUse" color-interpolation-filters="sRGB"><feFlood flood-color="#fff" result="bg"/><feBlend in="SourceGraphic" in2="bg"/></filter><mask id="mask-9" x="499.49" y="42.78" width="135.86" height="619.81" maskUnits="userSpaceOnUse"><g class="cls-15"><rect class="cls-16" x="499.49" y="42.78" width="135.86" height="619.81"/></g></mask><linearGradient id="linear-gradient-9" x1="154.52" y1="104.48" x2="639.49" y2="589.45" xlink:href="#linear-gradient-2"/><filter id="luminosity-noclip-10" x="185.84" y="-8626.03" width="247.32" height="32766" filterUnits="userSpaceOnUse" color-interpolation-filters="sRGB"><feFlood flood-color="#fff" result="bg"/><feBlend in="SourceGraphic" in2="bg"/></filter><mask id="mask-10" x="185.84" y="-8626.03" width="247.32" height="32766" maskUnits="userSpaceOnUse"><g class="cls-102"/></mask><linearGradient id="linear-gradient-10" x1="1289.32" y1="370.68" x2="161.91" y2="672.77" xlink:href="#linear-gradient"/><filter id="luminosity-noclip-11" x="185.84" y="5.57" width="247.32" height="462.53" filterUnits="userSpaceOnUse" color-interpolation-filters="sRGB"><feFlood flood-color="#fff" result="bg"/><feBlend in="SourceGraphic" in2="bg"/></filter><mask id="mask-11" x="185.84" y="5.57" width="247.32" height="462.53" maskUnits="userSpaceOnUse"><g class="cls-19"><rect class="cls-20" x="185.84" y="5.57" width="247.32" height="462.53"/></g></mask><linearGradient id="linear-gradient-11" x1="1289.32" y1="370.68" x2="161.91" y2="672.77" xlink:href="#linear-gradient-2"/><filter id="luminosity-noclip-12" x="46.65" y="-8626.03" width="262" height="32766" filterUnits="userSpaceOnUse" color-interpolation-filters="sRGB"><feFlood flood-color="#fff" result="bg"/><feBlend in="SourceGraphic" in2="bg"/></filter><mask id="mask-12" x="46.65" y="-8626.03" width="262" height="32766" maskUnits="userSpaceOnUse"><g class="cls-101"/></mask><linearGradient id="linear-gradient-12" x1="731.09" y1="497.19" x2="26.56" y2="497.19" xlink:href="#linear-gradient"/><filter id="luminosity-noclip-13" x="46.65" y="134.7" width="262" height="476.33" filterUnits="userSpaceOnUse" color-interpolation-filters="sRGB"><feFlood flood-color="#fff" result="bg"/><feBlend in="SourceGraphic" in2="bg"/></filter><mask id="mask-13" x="46.65" y="134.7" width="262" height="476.33" maskUnits="userSpaceOnUse"><g class="cls-23"><rect class="cls-24" x="46.65" y="134.7" width="262" height="476.33"/></g></mask><linearGradient id="linear-gradient-13" x1="731.09" y1="497.19" x2="26.56" y2="497.19" xlink:href="#linear-gradient-2"/><filter id="luminosity-noclip-14" x="6.28" y="-8626.03" width="177.87" height="32766" filterUnits="userSpaceOnUse" color-interpolation-filters="sRGB"><feFlood flood-color="#fff" result="bg"/><feBlend in="SourceGraphic" in2="bg"/></filter><mask id="mask-14" x="6.28" y="-8626.03" width="177.87" height="32766" maskUnits="userSpaceOnUse"><g class="cls-100"/></mask><linearGradient id="linear-gradient-14" x1="660.97" y1="416.15" x2="-5.7" y2="416.15" xlink:href="#linear-gradient"/><filter id="luminosity-noclip-15" x="6.28" y="244.71" width="177.87" height="418.39" filterUnits="userSpaceOnUse" color-interpolation-filters="sRGB"><feFlood flood-color="#fff" result="bg"/><feBlend in="SourceGraphic" in2="bg"/></filter><mask id="mask-15" x="6.28" y="244.71" width="177.87" height="418.39" maskUnits="userSpaceOnUse"><g class="cls-27"><rect class="cls-28" x="6.28" y="244.71" width="177.87" height="418.39"/></g></mask><linearGradient id="linear-gradient-15" x1="660.97" y1="416.15" x2="-5.7" y2="416.15" xlink:href="#linear-gradient-2"/><filter id="luminosity-noclip-16" x="171.32" y="-8626.03" width="261.84" height="32766" filterUnits="userSpaceOnUse" color-interpolation-filters="sRGB"><feFlood flood-color="#fff" result="bg"/><feBlend in="SourceGraphic" in2="bg"/></filter><mask id="mask-16" x="171.32" y="-8626.03" width="261.84" height="32766" maskUnits="userSpaceOnUse"><g class="cls-99"/></mask><linearGradient id="linear-gradient-16" x1="302.24" y1="2027.38" x2="302.24" y2="442.59" xlink:href="#linear-gradient"/><filter id="luminosity-noclip-17" x="171.32" y="5.47" width="261.84" height="462.63" filterUnits="userSpaceOnUse" color-interpolation-filters="sRGB"><feFlood flood-color="#fff" result="bg"/><feBlend in="SourceGraphic" in2="bg"/></filter><mask id="mask-17" x="171.32" y="5.47" width="261.84" height="462.63" maskUnits="userSpaceOnUse"><g class="cls-31"><rect class="cls-32" x="171.32" y="5.47" width="261.84" height="462.63"/></g></mask><linearGradient id="linear-gradient-17" x1="302.24" y1="2027.38" x2="302.24" y2="442.59" xlink:href="#linear-gradient-2"/><filter id="luminosity-noclip-18" x="187.87" y="-8626.03" width="61.36" height="32766" filterUnits="userSpaceOnUse" color-interpolation-filters="sRGB"><feFlood flood-color="#fff" result="bg"/><feBlend in="SourceGraphic" in2="bg"/></filter><mask id="mask-18" x="187.87" y="-8626.03" width="61.36" height="32766" maskUnits="userSpaceOnUse"><g class="cls-98"/></mask><linearGradient id="linear-gradient-18" x1="218.54" y1="-147.34" x2="218.55" y2="266.66" xlink:href="#linear-gradient"/><filter id="luminosity-noclip-19" x="187.87" y="661.02" width="61.36" height="122.3" filterUnits="userSpaceOnUse" color-interpolation-filters="sRGB"><feFlood flood-color="#fff" result="bg"/><feBlend in="SourceGraphic" in2="bg"/></filter><mask id="mask-19" x="187.87" y="661.02" width="61.36" height="122.3" maskUnits="userSpaceOnUse"><g class="cls-35"><rect class="cls-36" x="187.87" y="661.02" width="61.36" height="122.3"/></g></mask><linearGradient id="linear-gradient-19" x1="218.54" y1="-147.34" x2="218.55" y2="266.66" xlink:href="#linear-gradient-2"/><filter id="luminosity-noclip-20" x="193.05" y="-8626.03" width="51" height="32766" filterUnits="userSpaceOnUse" color-interpolation-filters="sRGB"><feFlood flood-color="#fff" result="bg"/><feBlend in="SourceGraphic" in2="bg"/></filter><mask id="mask-20" x="193.05" y="-8626.03" width="51" height="32766" maskUnits="userSpaceOnUse"><g class="cls-97"/></mask><linearGradient id="linear-gradient-20" x1="218.55" y1="5.48" x2="218.55" y2="141.85" xlink:href="#linear-gradient"/><filter id="luminosity-noclip-21" x="193.05" y="743.98" width="51" height="34.17" filterUnits="userSpaceOnUse" color-interpolation-filters="sRGB"><feFlood flood-color="#fff" result="bg"/><feBlend in="SourceGraphic" in2="bg"/></filter><mask id="mask-21" x="193.05" y="743.98" width="51" height="34.17" maskUnits="userSpaceOnUse"><g class="cls-39"><rect class="cls-40" x="193.05" y="743.98" width="51" height="34.17"/></g></mask><linearGradient id="linear-gradient-21" x1="218.55" y1="5.48" x2="218.55" y2="141.85" xlink:href="#linear-gradient-2"/><filter id="luminosity-noclip-22" x="312.73" y="-8626.03" width="61.36" height="32766" filterUnits="userSpaceOnUse" color-interpolation-filters="sRGB"><feFlood flood-color="#fff" result="bg"/><feBlend in="SourceGraphic" in2="bg"/></filter><mask id="mask-22" x="312.73" y="-8626.03" width="61.36" height="32766" maskUnits="userSpaceOnUse"><g class="cls-96"/></mask><linearGradient id="linear-gradient-22" x1="343.4" y1="37.32" x2="343.41" y2="348.14" xlink:href="#linear-gradient"/><filter id="luminosity-noclip-23" x="312.73" y="581.34" width="61.36" height="122.3" filterUnits="userSpaceOnUse" color-interpolation-filters="sRGB"><feFlood flood-color="#fff" result="bg"/><feBlend in="SourceGraphic" in2="bg"/></filter><mask id="mask-23" x="312.73" y="581.34" width="61.36" height="122.3" maskUnits="userSpaceOnUse"><g class="cls-43"><rect class="cls-44" x="312.73" y="581.34" width="61.36" height="122.3"/></g></mask><linearGradient id="linear-gradient-23" x1="343.4" y1="37.32" x2="343.41" y2="348.14" xlink:href="#linear-gradient-2"/><filter id="luminosity-noclip-24" x="437.69" y="-8626.03" width="61.36" height="32766" filterUnits="userSpaceOnUse" color-interpolation-filters="sRGB"><feFlood flood-color="#fff" result="bg"/><feBlend in="SourceGraphic" in2="bg"/></filter><mask id="mask-24" x="437.69" y="-8626.03" width="61.36" height="32766" maskUnits="userSpaceOnUse"><g class="cls-95"/></mask><linearGradient id="linear-gradient-24" x1="468.37" y1="-10.65" x2="468.37" y2="304.11" xlink:href="#linear-gradient"/><filter id="luminosity-noclip-25" x="437.69" y="661.02" width="61.36" height="122.3" filterUnits="userSpaceOnUse" color-interpolation-filters="sRGB"><feFlood flood-color="#fff" result="bg"/><feBlend in="SourceGraphic" in2="bg"/></filter><mask id="mask-25" x="437.69" y="661.02" width="61.36" height="122.3" maskUnits="userSpaceOnUse"><g class="cls-47"><rect class="cls-48" x="437.69" y="661.02" width="61.36" height="122.3"/></g></mask><linearGradient id="linear-gradient-25" x1="468.37" y1="-10.65" x2="468.37" y2="304.11" xlink:href="#linear-gradient-2"/><filter id="luminosity-noclip-26" x="317.91" y="-8626.03" width="51" height="32766" filterUnits="userSpaceOnUse" color-interpolation-filters="sRGB"><feFlood flood-color="#fff" result="bg"/><feBlend in="SourceGraphic" in2="bg"/></filter><mask id="mask-26" x="317.91" y="-8626.03" width="51" height="32766" maskUnits="userSpaceOnUse"><g class="cls-94"/></mask><linearGradient id="linear-gradient-26" x1="343.41" y1="156.92" x2="343.41" y2="266.99" xlink:href="#linear-gradient"/><filter id="luminosity-noclip-27" x="317.91" y="664.3" width="51" height="34.18" filterUnits="userSpaceOnUse" color-interpolation-filters="sRGB"><feFlood flood-color="#fff" result="bg"/><feBlend in="SourceGraphic" in2="bg"/></filter><mask id="mask-27" x="317.91" y="664.3" width="51" height="34.18" maskUnits="userSpaceOnUse"><g class="cls-51"><rect class="cls-52" x="317.91" y="664.3" width="51" height="34.18"/></g></mask><linearGradient id="linear-gradient-27" x1="343.41" y1="156.92" x2="343.41" y2="266.99" xlink:href="#linear-gradient-2"/><filter id="luminosity-noclip-28" x="442.87" y="-8626.03" width="51" height="32766" filterUnits="userSpaceOnUse" color-interpolation-filters="sRGB"><feFlood flood-color="#fff" result="bg"/><feBlend in="SourceGraphic" in2="bg"/></filter><mask id="mask-28" x="442.87" y="-8626.03" width="51" height="32766" maskUnits="userSpaceOnUse"><g class="cls-93"/></mask><linearGradient id="linear-gradient-28" x1="468.37" y1="52.76" x2="468.37" y2="154.32" xlink:href="#linear-gradient"/><filter id="luminosity-noclip-29" x="442.87" y="743.98" width="51" height="34.17" filterUnits="userSpaceOnUse" color-interpolation-filters="sRGB"><feFlood flood-color="#fff" result="bg"/><feBlend in="SourceGraphic" in2="bg"/></filter><mask id="mask-29" x="442.87" y="743.98" width="51" height="34.17" maskUnits="userSpaceOnUse"><g class="cls-55"><rect class="cls-56" x="442.87" y="743.98" width="51" height="34.17"/></g></mask><linearGradient id="linear-gradient-29" x1="468.37" y1="52.76" x2="468.37" y2="154.32" xlink:href="#linear-gradient-2"/><filter id="luminosity-noclip-30" x="46.64" y="-8626.03" width="333.95" height="32766" filterUnits="userSpaceOnUse" color-interpolation-filters="sRGB"><feFlood flood-color="#fff" result="bg"/><feBlend in="SourceGraphic" in2="bg"/></filter><mask id="mask-30" x="46.64" y="-8626.03" width="333.95" height="32766" maskUnits="userSpaceOnUse"><g class="cls-92"/></mask><linearGradient id="linear-gradient-30" x1="213.61" y1="-1442.83" x2="213.61" y2="786.19" xlink:href="#linear-gradient"/><filter id="luminosity-noclip-31" x="46.64" y="78.88" width="333.95" height="631.3" filterUnits="userSpaceOnUse" color-interpolation-filters="sRGB"><feFlood flood-color="#fff" result="bg"/><feBlend in="SourceGraphic" in2="bg"/></filter><mask id="mask-31" x="46.64" y="78.88" width="333.95" height="631.3" maskUnits="userSpaceOnUse"><g class="cls-59"><rect class="cls-60" x="46.64" y="78.88" width="333.95" height="631.3"/></g></mask><linearGradient id="linear-gradient-31" x1="213.61" y1="-1442.83" x2="213.61" y2="786.19" xlink:href="#linear-gradient-2"/><filter id="luminosity-noclip-32" x="185.84" y="-1.04" width="501.9" height="790.9" filterUnits="userSpaceOnUse" color-interpolation-filters="sRGB"><feFlood flood-color="#fff" result="bg"/><feBlend in="SourceGraphic" in2="bg"/></filter><mask id="mask-32" x="185.84" y="-1.04" width="501.9" height="790.9" maskUnits="userSpaceOnUse"><g class="cls-5"><rect class="cls-6" x="185.84" y="-1.04" width="501.9" height="790.9"/></g></mask><linearGradient id="linear-gradient-32" x1="436.79" y1="-1460.22" x2="436.79" y2="989.59" xlink:href="#linear-gradient-2"/><linearGradient id="linear-gradient-33" x1="153.63" y1="764.8" x2="153.64" y2="65.6" gradientTransform="matrix(1, 0, 0, -1, 0, 870.06)" gradientUnits="userSpaceOnUse"><stop offset="0" stop-color="#5dcbb2"/><stop offset="1" stop-color="#93ddcb"/></linearGradient><mask id="mask-33" x="37.31" y="134.17" width="271" height="476.86" maskUnits="userSpaceOnUse"><g id="id0"><g class="cls-3"><rect class="cls-4" x="37.31" y="134.17" width="271" height="476.86"/></g></g></mask><linearGradient id="linear-gradient-34" x1="239.9" y1="930.39" x2="239.9" y2="105.03" gradientTransform="matrix(1, 0, 0, -1, 0, 870.06)" gradientUnits="userSpaceOnUse"><stop offset="0" stop-color="#64cdb5"/><stop offset="1" stop-color="#fff"/></linearGradient><mask id="mask-34" x="171.32" y="5.47" width="261.84" height="462.63" maskUnits="userSpaceOnUse"><g id="id4"><g class="cls-33"><rect class="cls-34" x="171.32" y="5.47" width="261.84" height="462.63"/></g></g></mask><mask id="mask-35" x="46.64" y="78.88" width="333.95" height="631.3" maskUnits="userSpaceOnUse"><g id="id6"><g class="cls-61"><rect class="cls-62" x="46.64" y="78.88" width="333.95" height="631.3"/></g></g></mask><linearGradient id="linear-gradient-35" x1="436.78" y1="1134.77" x2="436.78" y2="-155.85" gradientTransform="matrix(1, 0, 0, -1, 0, 870.06)" gradientUnits="userSpaceOnUse"><stop offset="0" stop-color="#020303"/><stop offset="1" stop-color="#b6ffff"/></linearGradient><mask id="mask-36" x="185.84" y="-1.04" width="501.9" height="790.9" maskUnits="userSpaceOnUse"><g id="id8"><g class="cls-63"><rect class="cls-64" x="185.84" y="-1.04" width="501.9" height="790.9"/></g></g></mask><linearGradient id="linear-gradient-36" x1="595.6" y1="1037.19" x2="595.6" y2="-32.63" xlink:href="#linear-gradient-34"/><mask id="mask-37" x="503.47" y="43.41" width="151.89" height="619.18" maskUnits="userSpaceOnUse"><g id="id10"><g class="cls-9"><rect class="cls-10" x="503.47" y="43.41" width="151.89" height="619.18"/></g></g></mask><linearGradient id="linear-gradient-37" x1="91.2" y1="540.06" x2="91.2" y2="161.55" gradientTransform="matrix(1, 0, 0, -1, 0, 870.06)" gradientUnits="userSpaceOnUse"><stop offset="0" stop-color="#54c9ae"/><stop offset="1" stop-color="#6e6e6e"/></linearGradient><mask id="mask-38" x="0.89" y="244.7" width="182.56" height="418.4" maskUnits="userSpaceOnUse"><g id="id12"><g class="cls-13"><rect class="cls-14" x="0.89" y="244.7" width="182.56" height="418.4"/></g></g></mask><mask id="mask-39" x="499.49" y="42.78" width="135.86" height="619.81" maskUnits="userSpaceOnUse"><g id="id14"><g class="cls-17"><rect class="cls-18" x="499.49" y="42.78" width="135.86" height="619.81"/></g></g></mask><mask id="mask-40" x="185.84" y="5.57" width="247.32" height="462.53" maskUnits="userSpaceOnUse"><g id="id16"><g class="cls-21"><rect class="cls-22" x="185.84" y="5.57" width="247.32" height="462.53"/></g></g></mask><mask id="mask-41" x="46.65" y="134.7" width="262" height="476.33" maskUnits="userSpaceOnUse"><g id="id18"><g class="cls-25"><rect class="cls-26" x="46.65" y="134.7" width="262" height="476.33"/></g></g></mask><mask id="mask-42" x="6.28" y="244.71" width="177.87" height="418.39" maskUnits="userSpaceOnUse"><g id="id20"><g class="cls-29"><rect class="cls-30" x="6.28" y="244.71" width="177.87" height="418.39"/></g></g></mask><mask id="mask-43" x="187.87" y="661.02" width="61.36" height="122.3" maskUnits="userSpaceOnUse"><g id="id22"><g class="cls-37"><rect class="cls-38" x="187.87" y="661.02" width="61.36" height="122.3"/></g></g></mask><mask id="mask-44" x="193.05" y="743.98" width="51" height="34.17" maskUnits="userSpaceOnUse"><g id="id24"><g class="cls-41"><rect class="cls-42" x="193.05" y="743.98" width="51" height="34.17"/></g></g></mask><mask id="mask-45" x="312.73" y="581.34" width="61.36" height="122.3" maskUnits="userSpaceOnUse"><g id="id26"><g class="cls-45"><rect class="cls-46" x="312.73" y="581.34" width="61.36" height="122.3"/></g></g></mask><mask id="mask-46" x="437.69" y="661.02" width="61.36" height="122.3" maskUnits="userSpaceOnUse"><g id="id28"><g class="cls-49"><rect class="cls-50" x="437.69" y="661.02" width="61.36" height="122.3"/></g></g></mask><mask id="mask-47" x="317.91" y="664.3" width="51" height="34.18" maskUnits="userSpaceOnUse"><g id="id30"><g class="cls-53"><rect class="cls-54" x="317.91" y="664.3" width="51" height="34.18"/></g></g></mask><mask id="mask-48" x="442.87" y="743.98" width="51" height="34.17" maskUnits="userSpaceOnUse"><g id="id32"><g class="cls-57"><rect class="cls-58" x="442.87" y="743.98" width="51" height="34.17"/></g></g></mask></defs><g id="Layer_2" data-name="Layer 2"><g id="LOGO"><path class="cls-65" d="M307.27,610c0-108.47-47.75-149.93-151.1-206.06C45.49,343.82,24.67,226.27,70.33,135.21a343.53,343.53,0,0,0,97.13,503.13,26.28,26.28,0,0,1,14.95,23.72v90.6c0,31.57,38.62,48.53,61.65,25.5a36,36,0,0,0,10.63-25.5V610a26.29,26.29,0,0,1,52.58,0Z"/><g class="cls-66"><path class="cls-67" d="M307.27,610c0-108.47-47.75-149.93-151.1-206.06C45.49,343.82,24.67,226.27,70.33,135.21c-52,83-46.74,215.51,61.7,279.24,88.24,51.86,126.66,93,130.56,176.76A26.29,26.29,0,0,1,307.27,610Z"/></g><text/><path class="cls-68" d="M156.17,403.93c103.35,56.13,151.1,97.59,151.1,206.06v63c0,31.58,38.62,48.53,61.64,25.51A36.06,36.06,0,0,0,379.55,673V467.06a26.29,26.29,0,0,1,52.57,0c0-112.26-62-175.67-145.43-208.24-147-57.36-115.39-221.13-9.92-252.31A343.78,343.78,0,0,0,70.33,135.21c-45.66,91.06-24.84,208.61,85.84,268.72Z"/><g class="cls-69"><path class="cls-67" d="M393.39,443.91a26.29,26.29,0,0,1,38.73,23.15c0-112.26-62-175.67-145.43-208.24-147-57.36-115.39-221.13-9.92-252.31C164.19,27.61,116.23,206,269.37,275.14c67.58,30.51,116.29,77.62,124,168.77Z"/></g><g class="cls-70"><path class="cls-71" d="M156.17,403.93c103.35,56.13,151.1,97.59,151.1,206.06v63c0,31.58,38.62,48.53,61.64,25.51A36.06,36.06,0,0,0,379.55,673V504.19c0-93.36-84.14-143-151.49-182.25C101.55,248.22,79,169.65,123.17,79.92q-11.61,9.75-22.55,20.66a343.79,343.79,0,0,0-30.29,34.63c-45.66,91.06-24.84,208.61,85.84,268.72Z"/></g><path class="cls-72" d="M276.77,6.51c-105.47,31.18-137.08,195,9.92,252.31,83.45,32.57,145.43,96,145.43,208.24v285.6c0,31.58,38.63,48.53,61.65,25.5a36.11,36.11,0,0,0,10.74-25.5V661.55a26.17,26.17,0,0,1,12.94-22.08C710.06,526.4,745.56,259.94,586.2,100.58A343.13,343.13,0,0,0,276.77,6.51Z"/><g class="cls-73"><path class="cls-74" d="M276.77,6.51c-79,23.36-116.56,121.12-68.64,192.82C225.7,103.43,421,105.17,462.2,260.47c26.59,100.2-30.08,191.27-30.08,287V752.66c0,31.58,38.63,48.53,61.65,25.5a36.11,36.11,0,0,0,10.74-25.5V661.55a26.17,26.17,0,0,1,12.94-22.08C710.06,526.4,745.56,259.94,586.2,100.58A343.13,343.13,0,0,0,276.77,6.51Z"/></g><path class="cls-75" d="M587.7,416.36c-42.71,74-83,72.39-83.19,245.19a26.17,26.17,0,0,1,12.94-22.08C710.06,526.4,745.56,259.94,586.2,100.58A343.66,343.66,0,0,0,512,44.16c152.68,88.15,143.16,255.35,75.69,372.2Z"/><g class="cls-76"><path class="cls-67" d="M587.7,416.36c-42.71,74-83,72.39-83.19,245.19a26.17,26.17,0,0,1,12.94-22.08q14.63-8.6,28-18.34C547.19,505,583,494.55,616.78,425.78c43.3-88.23,55.43-200,2.47-287a348.87,348.87,0,0,0-33-38.2,343.85,343.85,0,0,0-73.54-56l-.16-.08c152.16,88.22,142.6,255.18,75.2,371.91Z"/></g><path class="cls-77" d="M14.21,245.74a343.57,343.57,0,0,0,153.25,392.6,26.28,26.28,0,0,1,14.95,23.72c0-73.7-2.22-117.21-77.89-175.76C40.61,436.85-12,343.9,14.21,245.74Z"/><g class="cls-78"><path d="M14.21,245.74a344.12,344.12,0,0,0-12,59.07c-3.85,74.8,33.68,145,80.7,188.53,52.93,49,65,85.81,65,132.41q9.53,6.6,19.56,12.59a26.28,26.28,0,0,1,14.95,23.72c0-73.7-2.22-117.21-77.89-175.76C40.61,436.85-12,343.9,14.21,245.74Z"/></g><g class="cls-79"><path class="cls-74" d="M504.51,661.55c.16-172.8,40.48-171.21,83.19-245.19C654.89,300,664.58,133.72,513.89,45.28l-2.58-1.46c.28.71,91.13,45.36,109.87,170.36,12,79.88-16.38,164.63-63.74,228.85-5.55,7.52-11.3,14.9-16.83,22.44-44.3,60.5-43.81,125.43-36.1,196.08Z"/></g><g class="cls-80"><path class="cls-74" d="M276.46,6.61C171.24,38,139.84,201.52,286.69,258.82c83.45,32.57,145.43,96,145.43,208.24,0-69.73-4.56-112.25-47.54-157.38-24.32-25.54-55.91-45.79-94.06-60.68-38.77-15.13-72.87-41.62-86.84-82a116.63,116.63,0,0,1-2.59-66.68c9.49-37.56,39.07-78.45,75.37-93.67Z"/></g><g class="cls-81"><path class="cls-71" d="M156.17,403.93c103.35,56.13,151.1,97.59,151.1,206.06,0-40.22,4.3-79.29-17.54-113.8-29-45.73-82.11-76.29-128.54-101.5-43.14-23.43-75.77-58.46-91.87-102-18-48.78-15.43-113,.75-157-45.31,91-24.36,208.19,86.1,268.19Z"/></g><g class="cls-82"><path class="cls-83" d="M14.21,245.75h0C-12,343.9,40.61,436.86,104.52,486.3c75.67,58.55,77.89,102.06,77.89,175.76.45-57.39,7.3-106.25-33.37-149.33A332.18,332.18,0,0,0,111,478a250.93,250.93,0,0,1-60-67.42C17.49,355.64,4.84,307.77,14.21,245.75Z"/></g><g class="cls-84"><path class="cls-83" d="M188.91,662.06v90.6c0,26.11,31.83,39.62,50.55,20.9a29.51,29.51,0,0,0,8.73-20.9v-90.6h0a29.64,29.64,0,1,1-59.28,0Z"/></g><g class="cls-85"><path class="cls-83" d="M241.79,745a24.47,24.47,0,0,1-46.48,0,24.46,24.46,0,1,0,46.48,0Z"/></g><g class="cls-86"><path class="cls-71" d="M313.77,582.38V673c0,26.12,31.83,39.62,50.55,20.91A29.56,29.56,0,0,0,373.05,673v-90.6h0a29.64,29.64,0,1,1-59.28,0Z"/></g><g class="cls-87"><path class="cls-74" d="M438.73,662.06v90.6c0,26.11,31.83,39.62,50.55,20.9a29.51,29.51,0,0,0,8.73-20.9v-90.6h0a29.64,29.64,0,1,1-59.28,0Z"/></g><g class="cls-88"><path class="cls-89" d="M366.65,665.34a24.47,24.47,0,0,1-46.48,0,24.46,24.46,0,1,0,46.48,0Z"/></g><g class="cls-90"><path class="cls-91" d="M491.61,745a24.47,24.47,0,0,1-46.48,0,24.46,24.46,0,1,0,46.48,0Z"/></g></g></g></svg>